<?xml version="1.0" standalone="no"?>
<!DOCTYPE svg PUBLIC "-//W3C//DTD SVG 20010904//EN"
 "http://www.w3.org/TR/2001/REC-SVG-20010904/DTD/svg10.dtd">
<svg version="1.0" xmlns="http://www.w3.org/2000/svg"
 width="300.000000pt" height="166.000000pt" viewBox="0 0 300.000000 166.000000"
 preserveAspectRatio="xMidYMid meet">

<g transform="translate(0.000000,166.000000) scale(0.100000,-0.100000)"
fill="#000000" stroke="none">
<path d="M588 1643 c-10 -3 -18 -8 -18 -13 0 -5 -43 -118 -96 -252 -52 -134
-106 -270 -119 -303 -12 -33 -46 -120 -75 -193 -29 -73 -51 -134 -49 -137 7
-6 108 -9 114 -3 9 8 83 205 90 239 l7 29 203 0 c184 0 203 -2 208 -17 3 -10
26 -70 50 -133 l45 -115 54 -5 c29 -3 63 -3 76 -1 l22 3 0 400 0 399 71 -3 70
-3 0 -397 0 -398 54 0 55 0 0 380 c0 247 4 380 10 380 6 0 10 -1 10 -3 0 -3
106 -310 160 -462 23 -66 48 -140 56 -165 8 -25 21 -64 30 -87 16 -43 16 -43
67 -43 57 0 62 6 85 90 9 35 111 325 137 390 8 19 33 90 56 158 23 67 44 120
47 117 4 -3 7 -171 8 -373 2 -202 3 -370 3 -374 1 -5 24 -8 51 -8 48 0 50 1
50 28 0 16 3 31 6 35 3 3 5 43 3 89 -2 46 -3 196 -4 333 -1 138 -2 287 -3 333
l-2 82 -78 0 -78 0 -41 -122 c-37 -108 -72 -210 -169 -483 -14 -38 -31 -92
-39 -119 -8 -26 -16 -50 -19 -53 -8 -8 -17 16 -152 417 l-122 365 -409 1
c-224 1 -416 -1 -425 -3z m62 -122 c0 -11 4 -22 9 -25 5 -3 12 -18 16 -33 3
-16 34 -99 67 -186 33 -87 59 -160 56 -162 -4 -4 -203 -8 -289 -6 l-27 1 30
73 c43 104 118 319 118 340 0 9 5 17 10 17 6 0 10 -9 10 -19z m330 -234 c0
-140 -3 -257 -7 -261 -4 -3 -14 13 -24 36 -27 70 -89 221 -104 253 -44 98 -85
200 -85 212 0 10 25 13 110 13 l110 0 0 -253z"/>
<path d="M2418 1563 c12 -2 32 -2 45 0 12 2 2 4 -23 4 -25 0 -35 -2 -22 -4z"/>
<path d="M2180 1550 c0 -5 5 -10 10 -10 6 0 10 5 10 10 0 6 -4 10 -10 10 -5 0
-10 -4 -10 -10z"/>
<path d="M2597 1539 c7 -7 15 -10 18 -7 3 3 -2 9 -12 12 -14 6 -15 5 -6 -5z"/>
<path d="M2211 1404 c0 -11 3 -14 6 -6 3 7 2 16 -1 19 -3 4 -6 -2 -5 -13z"/>
<path d="M16 842 c-4 -7 -9 -103 -10 -215 -2 -111 -1 -139 1 -62 2 77 8 144
13 149 7 7 10 -66 10 -205 0 -292 10 -501 24 -496 7 2 12 54 13 148 3 209 15
551 18 547 2 -2 5 -138 7 -303 3 -281 12 -368 29 -305 4 14 8 126 9 250 1 124
5 236 9 250 4 14 10 -74 14 -194 4 -121 9 -221 12 -224 15 -15 20 27 23 189 2
105 7 177 13 173 5 -3 9 -47 9 -97 0 -230 36 -273 41 -49 2 104 19 120 19 18
0 -41 5 -87 11 -103 l12 -28 7 25 c5 14 8 53 9 88 1 34 6 62 11 62 6 0 10 -26
10 -59 0 -33 5 -63 11 -66 16 -10 21 -1 26 50 7 55 21 59 25 8 4 -47 30 -52
34 -8 3 30 3 30 -8 5 -11 -24 -12 -24 -17 15 -4 27 -12 41 -23 43 -15 3 -18
-4 -18 -42 0 -25 -4 -46 -10 -46 -5 0 -10 21 -10 46 0 25 -5 55 -12 67 -11 21
-11 21 -19 2 -4 -11 -8 -46 -8 -77 -1 -92 -19 -76 -23 21 -3 87 -10 112 -25
97 -5 -4 -11 -58 -14 -119 -3 -62 -7 -110 -9 -107 -2 3 -6 72 -9 154 -4 96
-10 151 -17 153 -18 6 -24 -49 -24 -220 0 -88 -2 -158 -5 -155 -3 3 -9 105
-13 226 -8 210 -13 245 -29 228 -4 -3 -9 -119 -11 -257 -3 -144 -8 -245 -13
-237 -5 7 -9 130 -9 273 0 246 -7 344 -23 319 -3 -6 -10 -163 -14 -350 -9
-395 -20 -350 -22 96 -2 281 -8 350 -25 322z"/>
<path d="M2428 803 c12 -2 30 -2 40 0 9 3 -1 5 -23 4 -22 0 -30 -2 -17 -4z"/>
<path d="M2333 723 c9 -2 25 -2 35 0 9 3 1 5 -18 5 -19 0 -27 -2 -17 -5z"/>
<path d="M2443 680 c-3 -11 -11 -20 -18 -20 -6 0 -17 -12 -23 -26 -7 -14 -17
-22 -22 -19 -7 4 -10 -101 -10 -304 l0 -311 284 0 c277 0 284 1 289 20 3 11
11 19 19 18 7 -2 13 5 13 16 0 11 6 21 13 24 9 3 12 75 12 313 l0 309 -276 0
c-267 0 -276 -1 -281 -20z m537 -10 c10 -6 -79 -10 -253 -12 -147 -2 -267 0
-267 3 0 3 3 9 7 12 10 11 496 8 513 -3z m-583 -187 c-2 -21 -4 -4 -4 37 0 41
2 58 4 38 2 -21 2 -55 0 -75z m70 -5 c-2 -13 -4 -3 -4 22 0 25 2 35 4 23 2
-13 2 -33 0 -45z m-70 -130 c-2 -18 -4 -4 -4 32 0 36 2 50 4 33 2 -18 2 -48 0
-65z m70 -30 c-2 -13 -4 -3 -4 22 0 25 2 35 4 23 2 -13 2 -33 0 -45z m194
-288 c167 0 258 -4 254 -10 -4 -6 -104 -9 -263 -7 l-257 2 0 145 -1 145 3
-137 4 -138 260 0z m-194 123 c-2 -16 -4 -5 -4 22 0 28 2 40 4 28 2 -13 2 -35
0 -50z m521 -49 c-7 -6 -464 -12 -500 -6 -73 12 3 17 242 14 145 -1 260 -5
258 -8z m-113 -37 c50 -2 -30 -4 -177 -5 -148 -1 -268 1 -268 6 0 6 222 6 445
-1z"/>
<path d="M427 525 c-14 -41 -22 -75 -17 -75 6 0 12 11 16 25 9 37 60 36 75 -2
6 -16 13 -23 15 -18 5 14 -42 139 -54 143 -5 1 -21 -31 -35 -73z m47 23 c9
-33 8 -38 -8 -38 -20 0 -26 12 -19 38 7 28 19 28 27 0z"/>
<path d="M600 577 c0 -19 -4 -24 -17 -21 -26 6 -42 -8 -49 -42 -9 -45 28 -78
63 -56 13 8 24 130 12 138 -5 3 -9 -6 -9 -19z m-16 -33 c22 -8 22 -72 0 -81
-19 -7 -34 13 -34 48 0 36 8 43 34 33z"/>
<path d="M1200 580 c0 -15 -7 -20 -25 -20 -18 0 -28 -7 -35 -26 -19 -50 -6
-77 39 -80 l31 -2 0 74 c0 41 -2 74 -5 74 -3 0 -5 -9 -5 -20z m-2 -79 c-2 -28
-7 -36 -23 -36 -15 0 -21 8 -23 34 -4 35 11 53 35 44 9 -4 13 -18 11 -42z"/>
<path d="M1285 590 c3 -5 15 -10 25 -10 16 0 20 -9 23 -62 l3 -63 2 61 c2 52
5 62 25 72 19 9 14 11 -31 11 -33 1 -51 -3 -47 -9z"/>
<path d="M1583 530 c0 -41 2 -58 4 -38 4 39 28 67 43 52 5 -5 11 -27 13 -49 3
-33 4 -31 3 10 -1 46 -3 50 -26 50 -18 0 -27 7 -31 25 -4 14 -6 -9 -6 -50z"/>
<path d="M1893 525 c0 -44 2 -61 4 -37 2 23 2 59 0 80 -2 20 -4 1 -4 -43z"/>
<path d="M641 545 c1 -26 22 -84 33 -87 11 -4 46 91 37 97 -5 2 -14 -15 -21
-38 -12 -38 -13 -40 -21 -19 -25 64 -28 68 -28 47z"/>
<path d="M740 546 c-14 -18 0 -22 16 -6 11 11 44 4 44 -10 0 -4 -15 -11 -32
-16 -26 -8 -33 -15 -33 -34 0 -22 4 -25 38 -25 l38 -1 -3 51 c-3 45 -5 50 -29
53 -14 2 -31 -4 -39 -12z m58 -58 c-6 -16 -36 -34 -44 -26 -3 4 -4 14 -1 23 7
17 51 21 45 3z"/>
<path d="M853 554 c-9 -4 -12 -24 -11 -57 l2 -52 3 48 c2 26 8 48 14 49 31 4
34 0 40 -47 l6 -50 -1 55 c-1 47 -4 55 -21 57 -11 1 -26 -1 -32 -3z"/>
<path d="M952 548 c-6 -6 -12 -29 -12 -50 0 -32 4 -39 24 -44 27 -6 46 1 46
18 0 7 -6 6 -15 -2 -20 -16 -45 3 -45 35 0 33 25 51 47 34 14 -12 16 -12 11 1
-6 19 -40 24 -56 8z"/>
<path d="M1042 548 c-17 -17 -15 -73 3 -88 16 -13 65 -6 65 10 0 13 -17 13
-22 -1 -4 -13 -35 -2 -42 17 -4 11 4 14 34 14 45 0 44 -1 30 34 -10 28 -47 35
-68 14z m48 -8 c16 -10 8 -23 -17 -26 -25 -4 -35 6 -22 22 13 16 19 17 39 4z"/>
<path d="M1392 548 c-7 -7 -12 -29 -12 -49 0 -29 5 -39 20 -44 23 -7 60 2 60
16 0 13 -18 11 -23 -3 -3 -10 -9 -10 -23 -2 -32 19 -28 34 10 34 28 0 36 4 36
18 0 22 -19 42 -40 42 -9 0 -21 -5 -28 -12z m47 -12 c9 -11 6 -15 -14 -18 -30
-6 -39 1 -24 19 14 17 24 17 38 -1z"/>
<path d="M1490 541 c-15 -28 -12 -67 5 -81 20 -17 65 -4 65 18 -1 16 -1 16
-14 -1 -16 -20 -45 -13 -47 12 -4 49 11 67 40 52 17 -10 20 -9 15 4 -9 21 -51
19 -64 -4z"/>
<path d="M1687 554 c-11 -12 -8 -106 3 -99 6 3 10 24 10 45 0 68 39 65 43 -3
2 -20 6 -39 10 -44 5 -4 7 17 5 47 -3 53 -4 55 -33 58 -17 2 -34 0 -38 -4z"/>
<path d="M1792 548 c-15 -15 -16 -53 -2 -79 21 -38 80 -12 80 36 0 44 -50 71
-78 43z m56 -34 c4 -41 -24 -67 -43 -40 -8 10 -12 24 -9 32 2 8 6 21 9 30 9
27 40 12 43 -22z"/>
<path d="M1930 534 c-21 -54 25 -107 65 -74 18 15 20 71 3 88 -21 21 -58 14
-68 -14z m58 4 c30 -30 -1 -94 -33 -68 -25 20 -13 80 15 80 3 0 11 -5 18 -12z"/>
<path d="M2041 547 c-16 -16 -14 -72 4 -87 8 -6 23 -9 35 -5 20 6 21 5 11 -14
-13 -24 -31 -27 -50 -8 -11 10 -13 9 -8 -5 6 -17 -38 -18 -796 -21 -756 -2
-746 -2 163 -2 531 -1 902 2 825 5 -77 3 -134 9 -127 13 7 5 12 32 12 70 0 61
0 62 -29 64 -15 1 -33 -3 -40 -10z m47 -9 c18 -18 14 -56 -8 -68 -15 -8 -21
-6 -30 9 -5 11 -10 26 -10 33 0 14 19 38 30 38 3 0 11 -5 18 -12z"/>
<path d="M2143 505 c0 -33 2 -45 4 -27 2 18 2 45 0 60 -2 15 -4 0 -4 -33z"/>
<path d="M2180 540 c-30 -55 32 -121 70 -75 14 17 0 21 -16 5 -14 -14 -44 -2
-44 16 0 9 12 14 35 14 27 0 35 4 35 18 0 42 -60 58 -80 22z m58 -12 c2 -11
-5 -15 -23 -15 -26 0 -35 21 -12 30 18 8 32 2 35 -15z"/>
<path d="M2287 554 c-16 -17 -5 -42 23 -54 17 -7 30 -17 30 -22 0 -16 -30 -21
-47 -7 -14 12 -16 12 -11 -1 3 -9 17 -15 34 -15 44 0 46 38 3 60 -21 11 -28
20 -21 27 7 7 17 6 32 -2 18 -10 21 -9 18 2 -5 14 -49 23 -61 12z"/>
<path d="M490 275 c0 -48 4 -75 11 -75 7 0 10 20 7 55 -1 30 0 55 3 55 3 0 13
-25 23 -55 9 -30 21 -55 26 -55 5 0 17 22 27 50 10 28 21 50 25 50 4 0 9 -24
11 -52 3 -42 4 -37 5 25 2 97 -12 99 -43 6 l-22 -64 -22 68 c-31 94 -51 91
-51 -8z"/>
<path d="M857 343 c-4 -3 -7 -14 -7 -24 0 -12 -6 -16 -20 -12 -29 8 -50 -14
-50 -51 0 -41 16 -56 57 -56 l33 0 0 75 c0 75 -1 81 -13 68z m-7 -89 c0 -41
-26 -57 -46 -29 -18 24 -18 40 1 59 24 23 45 9 45 -30z"/>
<path d="M900 340 c0 -5 5 -10 10 -10 6 0 10 5 10 10 0 6 -4 10 -10 10 -5 0
-10 -4 -10 -10z"/>
<path d="M1415 330 c-3 -11 -4 -24 0 -30 3 -5 -1 -20 -9 -32 -9 -16 -11 -30
-5 -46 7 -19 15 -22 57 -20 47 2 49 3 47 30 -2 29 -15 52 -15 28 0 -11 -3 -11
-16 2 -13 13 -14 19 -3 35 7 11 9 28 6 37 -9 23 -54 21 -62 -4z m45 -16 c0
-16 -16 -19 -25 -4 -8 13 4 32 16 25 5 -4 9 -13 9 -21z m-1 -65 c11 -18 11
-23 -1 -30 -18 -12 -24 -11 -38 6 -10 12 -10 18 0 30 17 20 23 19 39 -6z"/>
<path d="M1610 335 c-21 -25 -7 -49 38 -64 35 -11 43 -17 40 -35 -4 -30 -41
-32 -67 -5 -21 22 -21 23 -21 2 0 -23 18 -33 59 -33 33 0 51 16 51 46 0 20
-12 28 -72 48 -10 3 -18 12 -18 20 0 22 31 28 57 10 30 -19 46 -8 19 12 -26
18 -70 18 -86 -1z"/>
<path d="M1740 340 c0 -5 5 -10 10 -10 6 0 10 5 10 10 0 6 -4 10 -10 10 -5 0
-10 -4 -10 -10z"/>
<path d="M2140 275 c0 -43 4 -75 10 -75 6 0 10 32 10 75 0 43 -4 75 -10 75 -6
0 -10 -32 -10 -75z"/>
<path d="M678 299 c-21 -12 -24 -69 -6 -87 17 -17 63 -15 78 3 10 12 10 15 -2
15 -8 0 -19 -5 -24 -10 -14 -14 -44 -2 -44 16 0 10 13 14 41 14 37 0 40 2 33
23 -11 36 -41 47 -76 26z m50 -11 c19 -19 14 -28 -18 -28 -32 0 -37 9 -18 28
15 15 21 15 36 0z"/>
<path d="M900 256 c0 -31 5 -56 10 -56 6 0 10 22 10 49 0 28 -4 53 -10 56 -6
4 -10 -15 -10 -49z"/>
<path d="M957 292 c-20 -22 -21 -33 -5 -67 13 -28 57 -35 77 -12 17 21 0 29
-21 11 -14 -14 -20 -14 -33 -4 -8 7 -15 23 -15 36 0 28 31 49 48 32 7 -7 15
-8 19 -4 9 9 -16 26 -38 26 -9 0 -23 -8 -32 -18z"/>
<path d="M1058 259 c-1 -28 0 -53 5 -56 4 -2 7 21 7 51 0 70 -7 73 -12 5z"/>
<path d="M1123 303 c-20 -4 -23 -11 -23 -48 0 -24 5 -47 10 -50 6 -4 10 12 10
39 0 42 2 46 25 46 23 0 25 -4 25 -45 0 -25 5 -45 10 -45 6 0 10 22 10 49 0
46 -12 65 -38 60 -4 -1 -17 -4 -29 -6z"/>
<path d="M1233 298 c-34 -44 -14 -98 37 -98 16 0 32 5 35 11 11 17 -2 21 -23
8 -17 -10 -23 -10 -36 0 -26 22 -19 31 24 31 33 0 40 3 40 20 0 33 -57 53 -77
28z m41 -4 c25 -10 19 -34 -9 -34 -24 0 -34 18 -18 33 8 8 8 8 27 1z"/>
<path d="M1740 255 c0 -30 5 -55 10 -55 6 0 10 25 10 55 0 30 -4 55 -10 55 -5
0 -10 -25 -10 -55z"/>
<path d="M1796 294 c-33 -33 -8 -102 32 -91 12 3 24 2 27 -3 8 -14 -23 -32
-45 -25 -12 4 -20 2 -20 -5 0 -7 14 -10 38 -8 l37 3 3 66 c3 62 1 67 -20 73
-32 8 -35 8 -52 -10z m52 -6 c28 -28 3 -85 -32 -72 -19 7 -22 54 -4 72 15 15
21 15 36 0z"/>
<path d="M1912 250 l1 -55 6 45 c5 37 10 46 28 48 17 3 24 -3 29 -22 3 -14 4
-33 1 -41 -4 -8 -2 -17 3 -20 6 -4 10 15 10 44 0 33 -4 52 -12 53 -68 8 -68 8
-66 -52z"/>
<path d="M2029 293 c-12 -15 -12 -16 6 -9 33 13 50 12 50 -4 0 -9 -12 -17 -30
-20 -24 -4 -31 -11 -33 -33 -3 -26 -2 -27 42 -25 l46 1 0 48 c0 33 -4 49 -16
53 -27 10 -51 7 -65 -11z m59 -60 c-4 -22 -48 -31 -48 -10 0 19 10 27 32 27
13 0 18 -6 16 -17z"/>
<path d="M2191 291 c-12 -21 -1 -34 37 -45 12 -4 22 -12 22 -17 0 -15 -30 -23
-43 -10 -17 17 -31 13 -17 -5 8 -9 25 -14 44 -12 25 2 31 7 31 28 0 19 -7 26
-32 34 -18 5 -33 13 -33 18 0 15 30 21 45 8 9 -7 15 -8 15 -2 0 11 -23 22 -45
22 -8 0 -19 -9 -24 -19z"/>
</g>
</svg>
