<?xml version="1.0" standalone="no"?>
<!DOCTYPE svg PUBLIC "-//W3C//DTD SVG 20010904//EN"
 "http://www.w3.org/TR/2001/REC-SVG-20010904/DTD/svg10.dtd">
<svg version="1.0" xmlns="http://www.w3.org/2000/svg"
 width="300.000000pt" height="166.000000pt" viewBox="0 0 300.000000 166.000000"
 preserveAspectRatio="xMidYMid meet">
<metadata>
Created by potrace 1.16, written by Peter Selinger 2001-2019
</metadata>
<g transform="translate(0.000000,166.000000) scale(0.100000,-0.100000)"
fill="#000000" stroke="none">
<path d="M588 1643 c-10 -3 -18 -8 -18 -13 0 -5 -43 -118 -96 -252 -52 -134
-106 -270 -119 -303 -12 -33 -46 -120 -75 -193 -29 -73 -51 -134 -49 -137 7
-6 108 -9 114 -3 9 8 83 205 90 239 l7 29 203 0 c184 0 203 -2 208 -17 3 -10
26 -70 50 -133 l45 -115 54 -5 c29 -3 63 -3 76 -1 l22 3 0 400 0 399 71 -3 70
-3 0 -397 0 -398 54 0 55 0 0 380 c0 247 4 380 10 380 6 0 10 -1 10 -3 0 -3
106 -310 160 -462 23 -66 48 -140 56 -165 8 -25 21 -64 30 -87 16 -43 16 -43
67 -43 57 0 62 6 85 90 9 35 111 325 137 390 8 19 33 90 56 158 23 67 44 120
47 117 4 -3 7 -171 8 -373 2 -202 3 -370 3 -374 1 -5 24 -8 51 -8 48 0 50 1
50 28 0 16 3 31 6 35 3 3 5 43 3 89 -2 46 -3 196 -4 333 -1 138 -2 287 -3 333
l-2 82 -78 0 -78 0 -41 -122 c-37 -108 -72 -210 -169 -483 -14 -38 -31 -92
-39 -119 -8 -26 -16 -50 -19 -53 -8 -8 -17 16 -152 417 l-122 365 -409 1
c-224 1 -416 -1 -425 -3z m62 -122 c0 -11 4 -22 9 -25 5 -3 12 -18 16 -33 3
-16 34 -99 67 -186 33 -87 59 -160 56 -162 -4 -4 -203 -8 -289 -6 l-27 1 30
73 c43 104 118 319 118 340 0 9 5 17 10 17 6 0 10 -9 10 -19z m330 -234 c0
-140 -3 -257 -7 -261 -4 -3 -14 13 -24 36 -27 70 -89 221 -104 253 -44 98 -85
200 -85 212 0 10 25 13 110 13 l110 0 0 -253z"/>
<path d="M16 842 c-4 -7 -9 -103 -10 -215 -2 -111 -1 -139 1 -62 2 77 8 144
13 149 7 7 10 -66 10 -205 0 -292 10 -501 24 -496 7 2 12 54 13 148 3 209 15
551 18 547 2 -2 5 -138 7 -303 3 -281 12 -368 29 -305 4 14 8 126 9 250 1 124
5 236 9 250 4 14 10 -74 14 -194 4 -121 9 -221 12 -224 15 -15 20 27 23 189 2
105 7 177 13 173 5 -3 9 -47 9 -97 0 -230 36 -273 41 -49 2 104 19 120 19 18
0 -41 5 -87 11 -103 l12 -28 7 25 c5 14 8 53 9 88 1 34 6 62 11 62 6 0 10 -26
10 -59 0 -33 5 -63 11 -66 16 -10 21 -1 26 50 7 55 21 59 25 8 4 -47 30 -52
34 -8 3 30 3 30 -8 5 -11 -24 -12 -24 -17 15 -4 27 -12 41 -23 43 -15 3 -18
-4 -18 -42 0 -25 -4 -46 -10 -46 -5 0 -10 21 -10 46 0 25 -5 55 -12 67 -11 21
-11 21 -19 2 -4 -11 -8 -46 -8 -77 -1 -92 -19 -76 -23 21 -3 87 -10 112 -25
97 -5 -4 -11 -58 -14 -119 -3 -62 -7 -110 -9 -107 -2 3 -6 72 -9 154 -4 96
-10 151 -17 153 -18 6 -24 -49 -24 -220 0 -88 -2 -158 -5 -155 -3 3 -9 105
-13 226 -8 210 -13 245 -29 228 -4 -3 -9 -119 -11 -257 -3 -144 -8 -245 -13
-237 -5 7 -9 130 -9 273 0 246 -7 344 -23 319 -3 -6 -10 -163 -14 -350 -9
-395 -20 -350 -22 96 -2 281 -8 350 -25 322z"/>
<path d="M2443 680 c-3 -11 -11 -20 -18 -20 -6 0 -17 -12 -23 -26 -7 -14 -17
-22 -22 -19 -7 4 -10 -101 -10 -304 l0 -311 284 0 c277 0 284 1 289 20 3 11
11 19 19 18 7 -2 13 5 13 16 0 11 6 21 13 24 9 3 12 75 12 313 l0 309 -276 0
c-267 0 -276 -1 -281 -20z"/>
<path d="M2041 547 c-16 -16 -14 -72 4 -87 8 -6 23 -9 35 -5 20 6 21 5 11 -14
-13 -24 -31 -27 -50 -8 -11 10 -13 9 -8 -5 6 -17 -38 -18 -796 -21 -756 -2
-746 -2 163 -2 531 -1 902 2 825 5 -77 3 -134 9 -127 13 7 5 12 32 12 70 0 61
0 62 -29 64 -15 1 -33 -3 -40 -10z"/>
</g>
</svg>
